<svg xmlns="http://www.w3.org/2000/svg" width="13" height="13" viewBox="0 0 24 24">
 <g>
  <title>background</title>
  <rect fill="none" id="canvas_background" height="5.19998" width="5.19998" y="-1" x="-1"/>
 </g>

 <g>
  <title>Layer 1</title>
  <g id="svg_2">
   <path id="svg_3" d="m23.48928,9.96544l-11.02343,-8.07113c-0.21257,-0.15561 -0.50135,-0.15561 -0.71383,0l-11.02352,8.07113c-0.26925,0.19718 -0.32776,0.57525 -0.13058,0.84452s0.5753,0.32766 0.84451,0.13058l10.66647,-7.80983l10.66647,7.80978c0.10756,0.0788 0.23256,0.11673 0.35646,0.11673c0.18604,0 0.36963,-0.08562 0.488,-0.24732c0.19721,-0.26921 0.13871,-0.64729 -0.13054,-0.84446l-0.00001,0z" fill="#91979c"/>
  </g>
  <g id="svg_5">
   <path id="svg_6" d="m20.56832,11.07731c-0.33366,0 -0.60423,0.27053 -0.60423,0.60423l0,9.61778l-4.83377,0l0,-5.24999c0,-1.66603 -1.35544,-3.02138 -3.02138,-3.02138s-3.02139,1.35545 -3.02139,3.02138l0,5.25004l-4.83381,0l0,-9.61779c0,-0.3337 -0.27057,-0.60423 -0.60423,-0.60423s-0.60423,0.27053 -0.60423,0.60423l0,10.22206c0,0.33371 0.27057,0.60424 0.60423,0.60424l6.04227,0c0.31776,0 0.5778,-0.2455 0.60187,-0.55718c0.00145,-0.01413 0.00236,-0.02957 0.00236,-0.04706l0,-5.85428c0,-0.99966 0.81326,-1.81291 1.81292,-1.81291s1.81292,0.8133 1.81292,1.81291l0,5.85428c0,0.0174 0.00091,0.03257 0.00236,0.04651c0.0238,0.31191 0.28393,0.55773 0.60187,0.55773l6.04227,0c0.33371,0 0.60423,-0.27053 0.60423,-0.60424l0,-10.22206c-0.00005,-0.33374 -0.27057,-0.60427 -0.60428,-0.60427l0.00002,0z" fill="#91979c"/>
  </g>
 </g>
</svg>