<svg xmlns="http://www.w3.org/2000/svg" width="13" height="13" viewBox="0 0 24 24">
 <g id="svg_2">
  <title>Layer 1</title>
  <path fill="#91979c" d="m23.48547,8.4707l-11.19426,-8.19621c-0.21586,-0.15802 -0.50912,-0.15802 -0.72489,0l-11.19435,8.19621c-0.27342,0.20024 -0.33284,0.58416 -0.1326,0.85761s0.58422,0.33274 0.8576,0.1326l10.83177,-7.93086l10.83177,7.93081c0.10923,0.08002 0.23617,0.11854 0.36199,0.11854c0.18892,0 0.37536,-0.08695 0.49556,-0.25115c0.20027,-0.27338 0.14086,-0.65732 -0.13256,-0.85755l-0.00001,0z" id="svg_3"/>
  <path fill="#91979c" d="m20.51925,9.5998c-0.33883,0 -0.61359,0.27472 -0.61359,0.61359l0,9.76682l-4.90868,0l0,-5.33135c0,-1.69185 -1.37644,-3.0682 -3.0682,-3.0682s-3.06821,1.37646 -3.06821,3.0682l0,5.3314l-4.90872,0l0,-9.76683c0,-0.33887 -0.27476,-0.61359 -0.61359,-0.61359s-0.61359,0.27472 -0.61359,0.61359l0,10.38047c0,0.33888 0.27476,0.6136 0.61359,0.6136l6.13591,0c0.32268,0 0.58675,-0.2493 0.6112,-0.56581c0.00147,-0.01435 0.0024,-0.03003 0.0024,-0.04779l0,-5.945c0,-1.01515 0.82586,-1.841 1.84101,-1.841s1.84101,0.8259 1.84101,1.841l0,5.945c0,0.01767 0.00092,0.03307 0.0024,0.04723c0.02417,0.31674 0.28833,0.56637 0.6112,0.56637l6.13591,0c0.33888,0 0.61359,-0.27472 0.61359,-0.6136l0,-10.38047c-0.00005,-0.33891 -0.27476,-0.61363 -0.61364,-0.61363l0.00002,0z" id="svg_6"/>
 </g>
</svg>